<svg xmlns="http://www.w3.org/2000/svg" width="512" height="512"><path d="m79.496 14.874 3.851-.008 4.193.007 4.483-.005c4.098-.004 8.197-.002 12.295.001 4.422.003 8.845-.001 13.268-.004 8.658-.004 17.317-.003 25.976 0 7.034.002 14.067.002 21.1.001h3.033l6.098-.001c19.058-.003 38.117 0 57.175.006 16.368.004 32.737.003 49.105-.001a128610.805 128610.805 0 0 1 63.067-.004h3.017c7.032.002 14.064 0 21.095-.002 8.56-.003 17.12-.002 25.678.003 4.371.003 8.742.004 13.112 0 3.995-.003 7.989-.001 11.983.004 1.451.001 2.903 0 4.354-.002 1.96-.003 3.92.001 5.88.005h3.31C434 15 434 15 435 16c.094 1.81.117 3.625.114 5.438v3.518l-.016 3.83-.005 3.896c-.003 3.424-.013 6.849-.024 10.273-.01 3.492-.015 6.985-.02 10.477-.01 6.856-.028 13.712-.049 20.568l3.945-.14c1.727-.038 3.453-.075 5.18-.11l2.594-.102c5.587-.086 8.986.41 13.281 4.352 4.193 5.553 3.45 12.19 3.434 18.844l.015 3.765c.009 3.292.001 6.584-.01 9.876-.001 2.013.01 4.026.028 6.039.03 3.878.034 7.754.03 11.632l.033 3.628c-.053 6.374-.209 10.385-4.53 15.216l-1.563 1.812c-2.688 2.221-5.34 2.31-8.667 2.286l-2.432-.01-2.526-.026-2.56-.013c-2.084-.012-4.168-.03-6.252-.049v4l3.945-.14c1.727-.038 3.453-.075 5.18-.11l2.594-.102c5.587-.086 8.986.41 13.281 4.352 4.042 5.802 3.45 12.053 3.434 18.844l.015 3.765c.009 3.292.001 6.584-.01 9.876-.001 2.013.01 4.026.028 6.039.03 3.878.034 7.754.03 11.632l.033 3.628c-.053 6.376-.213 10.38-4.53 15.216l-1.5 1.812c-2.836 2.246-6.1 2.312-9.61 2.286l-2.285-.01-2.355-.026-2.402-.013c-1.95-.012-3.899-.03-5.848-.049v4l3.945-.14c1.727-.038 3.453-.075 5.18-.11l2.594-.102c5.587-.086 8.986.41 13.281 4.352 4.042 5.802 3.45 12.053 3.434 18.844l.015 3.765c.009 3.292.001 6.584-.01 9.876-.001 2.013.01 4.026.028 6.039.03 3.878.034 7.754.03 11.632l.033 3.628c-.053 6.356-.177 10.422-4.53 15.216-3.467 3.047-6.42 4.132-11.012 4.098l-2.295-.01-2.38-.026-2.417-.013c-1.965-.012-3.93-.03-5.896-.049v4l3.98-.105c1.736-.029 3.472-.056 5.207-.083l2.62-.076c4.91-.056 8.212.046 12.193 3.264 3.481 3.979 4.125 7.285 4.177 12.478l.039 3.399.022 3.674.025 3.778c.014 2.64.025 5.28.032 7.92.009 2.704.03 5.407.062 8.11.042 3.898.059 7.794.069 11.692l.053 3.656c-.017 6.388-.088 10.481-4.479 15.293-7.329 6.44-12.975 4-24 4v51h-13v51a84678.869 84678.869 0 0 1-151.55.33l-3.219.004c-17.194.026-34.388.074-51.582.129-17.644.056-35.288.09-52.932.102-10.887.008-21.773.034-32.66.082-7.466.032-14.932.042-22.398.034-4.308-.004-8.614.002-12.921.034-3.947.03-7.894.03-11.84.01a284.03 284.03 0 0 0-4.273.024c-9.032.113-15.527-.881-22.625-6.749-5.83-6.238-7.309-13.266-7.254-21.708l-.01-2.267c-.008-2.504-.003-5.007.003-7.51l-.011-5.444c-.01-4.983-.008-9.967-.004-14.95.002-5.376-.007-10.752-.014-16.128-.013-10.53-.015-21.06-.012-31.591a36369.023 36369.023 0 0 0-.01-36.786c-.01-23.202-.009-46.404-.003-69.606.006-21.23-.006-42.46-.025-63.689-.02-21.795-.027-43.59-.024-65.384.002-12.238 0-24.476-.014-36.713-.012-10.418-.014-20.836-.002-31.254.006-5.315.007-10.63-.005-15.946-.01-4.867-.007-9.734.007-14.6.002-1.76 0-3.52-.008-5.28-.08-18.844-.08-18.844 5.511-27.394 7.54-7.213 15.085-8.874 25.371-8.876Z" fill="#91A4AD"/><path d="M391 15h43v366l-7 3c-2.54 2.19-3.784 3.769-4.369 7.104-.191 2.605-.237 5.179-.24 7.79l-.05 2.871c-.049 3.016-.07 6.031-.091 9.048-.028 2.048-.058 4.097-.09 6.146-.074 5.014-.123 10.027-.16 15.041l-1.907.8-2.483 1.066-2.47 1.05c-2.656 1.346-3.64 2.563-4.702 5.334l-.88 2.14L409 444h-5v39a144148.152 144148.152 0 0 1-139.752.165l-2.967.002c-15.858.013-31.715.037-47.573.064-16.269.029-32.538.045-48.807.051-10.04.004-20.08.017-30.12.042-6.884.016-13.767.02-20.65.017-3.973-.002-7.945 0-11.917.017-3.638.014-7.276.015-10.913.005-1.938-.002-3.875.01-5.813.024-7.42-.038-12.799-.415-18.738-5.2-4.48-5.6-5.421-10.216-4.75-17.187 1.03-5.978 3.558-9.973 8-14 3.231-1.975 5.682-2.25 9.443-2.246l3.371-.012 3.702.017 3.923-.005c3.604-.004 7.208.004 10.811.014 3.943.009 7.885.006 11.827.004 7.656 0 15.312.008 22.968.021 8.854.015 17.707.016 26.561.018 23.381.01 46.763.038 70.144.064L391 445V15Z" fill="#94A6AF"/><path d="M78 15v430l-8 3c-3.422 2.682-5.61 5.718-6.875 9.875L63 461l-.219 2.094C62.36 469.266 63.961 473.322 68 478c4.394 3.243 8.101 4.124 13.492 4.139l3.48.016 3.84.003 4.067.015c3.733.014 7.466.021 11.2.028 4.022.008 8.044.021 12.067.034 6.972.022 13.944.04 20.915.056 10.08.023 20.161.05 30.241.08 16.354.048 32.707.091 49.061.132 15.888.039 31.777.08 47.665.125l2.967.008 14.732.041c40.758.114 81.515.22 122.273.323v-39h5l.688-3.25c1.477-4.222 2.507-5.502 6.312-7.75a128.18 128.18 0 0 1 6-1l-.095-3.836a1278.82 1278.82 0 0 1-.235-14.151c-.03-2.038-.07-4.076-.123-6.113a553.46 553.46 0 0 1-.133-8.81c-.03-.905-.062-1.809-.094-2.74-.003-5.663 1.047-8.814 4.802-13.076C428 382 428 382 434 381V16h1v58h19c7.345 4.897 7.345 4.897 9 10 .433 4.284.444 8.54.434 12.844l.015 3.765c.009 3.292.001 6.584-.01 9.876-.001 2.013.01 4.026.028 6.039.03 3.878.034 7.754.03 11.632l.033 3.628c-.053 6.374-.209 10.385-4.53 15.216l-1.563 1.813c-2.688 2.22-5.34 2.308-8.667 2.285l-2.432-.01-2.526-.025-2.56-.014c-2.084-.012-4.168-.03-6.252-.049v4l3.945-.14c1.727-.038 3.453-.075 5.18-.11l2.594-.102c5.587-.086 8.986.41 13.281 4.352 4.042 5.802 3.45 12.053 3.434 18.844l.015 3.765c.009 3.292.001 6.584-.01 9.876-.001 2.013.01 4.026.028 6.039.03 3.878.034 7.754.03 11.632l.033 3.628c-.053 6.376-.213 10.38-4.53 15.216l-1.5 1.813c-2.836 2.245-6.1 2.311-9.61 2.285l-2.285-.01-2.355-.025-2.402-.014c-1.95-.012-3.899-.03-5.848-.049v4l3.945-.14c1.727-.038 3.453-.075 5.18-.11l2.594-.102c5.587-.086 8.986.41 13.281 4.352 4.042 5.802 3.45 12.053 3.434 18.844l.015 3.765c.009 3.292.001 6.584-.01 9.876-.001 2.013.01 4.026.028 6.039.03 3.878.034 7.754.03 11.632l.033 3.628c-.053 6.356-.177 10.422-4.53 15.216-3.467 3.047-6.42 4.132-11.012 4.098l-2.295-.01-2.38-.026-2.417-.013c-1.965-.012-3.93-.03-5.896-.049v4l3.98-.105c1.736-.029 3.472-.056 5.207-.082l2.62-.077c4.91-.056 8.212.046 12.193 3.264 3.481 3.979 4.125 7.285 4.177 12.478l.039 3.399.022 3.674.025 3.778c.014 2.64.025 5.28.032 7.92.009 2.704.03 5.407.062 8.11.042 3.898.059 7.794.069 11.692l.053 3.656c-.017 6.388-.088 10.481-4.479 15.293-7.329 6.44-12.975 4-24 4v51h-13v51a84678.87 84678.87 0 0 1-151.55.33l-3.219.004c-17.194.026-34.388.074-51.582.129-17.644.056-35.288.09-52.932.102-10.887.008-21.773.034-32.66.082-7.466.032-14.932.042-22.398.034-4.308-.004-8.614.002-12.921.034-3.947.03-7.894.03-11.84.01a284.03 284.03 0 0 0-4.273.024c-9.032.113-15.527-.881-22.625-6.749-5.83-6.238-7.309-13.266-7.254-21.708l-.01-2.267c-.008-2.504-.003-5.007.003-7.51l-.011-5.444c-.01-4.983-.008-9.967-.004-14.95.002-5.376-.007-10.752-.014-16.128-.013-10.53-.015-21.06-.012-31.591.001-8.559 0-17.117-.005-25.676l-.001-3.69-.004-7.42c-.01-23.202-.009-46.404-.003-69.606.006-21.23-.006-42.46-.025-63.689-.02-21.795-.027-43.59-.024-65.384.002-12.238 0-24.476-.014-36.713-.012-10.418-.014-20.836-.002-31.254.006-5.315.007-10.63-.005-15.946-.01-4.867-.007-9.734.007-14.6.002-1.76 0-3.52-.008-5.28-.08-18.844-.08-18.844 5.511-27.394C61.297 16.89 68.172 15 78 15Z" fill="#485E67"/><path d="M156 100h170v90H156v-90Z" fill="#9FB0B9"/><path d="M404 444v39a144148.152 144148.152 0 0 1-139.752.165l-2.967.002c-15.858.013-31.715.037-47.573.064-16.269.029-32.538.045-48.807.051-10.04.004-20.08.017-30.12.042-6.884.016-13.767.02-20.65.017-3.973-.002-7.945 0-11.917.017-3.638.014-7.276.015-10.913.005-1.938-.002-3.875.01-5.813.024-7.42-.038-12.799-.415-18.738-5.2-4.48-5.6-5.421-10.216-4.75-17.187 1.03-5.978 3.558-9.973 8-14 3.218-1.963 5.663-2.253 9.407-2.262l3.346-.022 3.675.006c1.933-.01 1.933-.01 3.905-.018 3.58-.016 7.16-.02 10.74-.02 3.861-.004 7.722-.02 11.582-.033 6.693-.023 13.385-.038 20.078-.048 9.69-.014 19.38-.04 29.07-.068 15.741-.045 31.481-.082 47.222-.113 15.259-.03 30.518-.065 45.777-.105l2.844-.007 14.13-.037a161221.218 161221.218 0 0 1 105.653-.248l3.615-.008 3.417-.007 2.896-.006c5.548-.006 11.095-.004 16.643-.004Z" fill="#DDD"/><path d="M78 15v430l-8 3c-3.676 2.88-5.725 5.92-6.875 10.438L63 461h-1v-20l-5-2c-1.8-2.164-1.8-2.164-3.313-4.625l-1.55-2.477L51 430c-.075 6.101-.129 12.203-.165 18.304-.015 2.073-.035 4.146-.061 6.218-.037 2.992-.054 5.983-.067 8.974-.015.916-.03 1.832-.047 2.776-.002 9.14 2.065 16.263 8.356 22.998 3.072 2.679 6.236 4.152 9.984 5.73-3 1-3 1-5.305.031-6.797-4.049-11.212-7.559-13.738-15.175-.978-3.939-1.237-7.539-1.211-11.564l-.01-2.267c-.008-2.504-.003-5.007.003-7.51l-.011-5.444c-.01-4.983-.008-9.967-.004-14.95.002-5.376-.007-10.752-.014-16.128-.013-10.53-.015-21.06-.012-31.591.001-8.559 0-17.117-.005-25.676l-.001-3.69-.004-7.42c-.01-23.202-.009-46.404-.003-69.606.006-21.23-.006-42.46-.025-63.689-.02-21.795-.027-43.59-.024-65.384.002-12.238 0-24.476-.014-36.713-.012-10.418-.014-20.836-.002-31.254.006-5.315.007-10.63-.005-15.946-.01-4.867-.007-9.734.007-14.6.002-1.76 0-3.52-.008-5.28-.08-18.844-.08-18.844 5.511-27.394C61.297 16.89 68.172 15 78 15Z" fill="#546E7A"/><path d="M371 15h20v429h-20V15Z" fill="#424242"/><path d="m154.712 84.506 2.33-.015c2.574-.011 5.146.006 7.72.023a2513.091 2513.091 0 0 1 20.576.014c5.243.018 10.486.015 15.73.014 8.804.002 17.608.02 26.412.046 10.183.032 20.366.042 30.55.04 9.791 0 19.583.01 29.375.026 4.17.008 8.339.011 12.508.012 4.908.002 9.815.014 14.723.035 1.802.005 3.605.008 5.408.007 2.457-.001 4.914.01 7.371.025l2.171-.01c3.61.035 6.403.176 9.414 2.277 1.186 2.372 1.133 3.82 1.147 6.466l.022 2.846.008 3.133.02 3.292c.02 3.606.031 7.212.041 10.818l.013 3.723c.018 5.831.033 11.662.041 17.492.01 6.732.036 13.464.077 20.195.034 5.83.045 11.66.05 17.489.004 2.48.016 4.962.034 7.442.025 3.467.024 6.933.017 10.4l.039 3.12-.021 2.864.007 2.484c-.714 3.226-1.806 4.328-4.495 6.236a46.378 46.378 0 0 1-7.667.508l-2.353.019c-2.604.016-5.208.003-7.812-.01a2493.385 2493.385 0 0 1-20.808.02c-5.302-.01-10.604 0-15.906.006-8.904.007-17.809-.002-26.713-.022-10.3-.021-20.599-.014-30.899.008-8.837.018-17.675.02-26.512.01-5.28-.006-10.561-.007-15.842.006-4.964.012-9.928.004-14.892-.02a707.451 707.451 0 0 0-5.472.006c-2.486.01-4.97-.003-7.457-.023l-2.196.027c-3.31-.052-5.191-.336-7.918-2.273-1.777-2.588-2.057-3.857-2.068-6.968l-.038-2.855.02-3.11c-.01-1.087-.018-2.174-.027-3.293-.022-3.596-.015-7.19-.006-10.786-.006-2.496-.012-4.992-.02-7.487-.01-5.232-.005-10.464.01-15.697.017-6.046 0-12.092-.032-18.138a2586.1 2586.1 0 0 1-.022-17.46c0-2.475-.006-4.95-.02-7.425a893.08 893.08 0 0 1 .019-10.371l-.036-3.111.039-2.855.002-2.476c1.803-6.42 7.6-6.807 13.338-6.724ZM156 100v90h170v-90H156Z" fill="#57707C"/><path d="M434 16h1v58h19c7.345 4.897 7.345 4.897 9 10 .433 4.284.444 8.54.434 12.844l.015 3.765c.009 3.292.001 6.584-.01 9.876-.001 2.013.01 4.026.028 6.039.03 3.878.034 7.754.03 11.632l.033 3.628c-.053 6.374-.209 10.385-4.53 15.216l-1.563 1.813c-2.688 2.22-5.34 2.308-8.667 2.285l-2.432-.01-2.526-.025-2.56-.014c-2.084-.012-4.168-.03-6.252-.049v4l3.945-.14c1.727-.038 3.453-.075 5.18-.11l2.594-.102c5.587-.086 8.986.41 13.281 4.352 4.042 5.802 3.45 12.053 3.434 18.844l.015 3.765c.009 3.292.001 6.584-.01 9.876-.001 2.013.01 4.026.028 6.039.03 3.878.034 7.754.03 11.632l.033 3.628c-.053 6.376-.213 10.38-4.53 15.216l-1.5 1.813C451.698 234.405 438.624 232 434 232V16Z" fill="#BD3A2C"/><path d="m434 232 1 4 3.945-.14c1.727-.038 3.453-.075 5.18-.11l2.594-.102c5.587-.086 8.986.41 13.281 4.352 4.042 5.802 3.45 12.053 3.434 18.844l.015 3.765c.009 3.292.001 6.584-.01 9.876-.001 2.013.01 4.026.028 6.039.03 3.878.034 7.754.03 11.632l.033 3.628c-.053 6.356-.177 10.422-4.53 15.216-3.467 3.047-6.42 4.132-11.012 4.098l-2.295-.01-2.38-.026-2.417-.013c-1.965-.012-3.93-.03-5.896-.049l-1 4v-85Z" fill="#268C43"/><path d="M434 317c20 0 20 0 25 3 3.481 3.979 4.125 7.285 4.177 12.478l.039 3.399.022 3.674.025 3.778c.014 2.64.025 5.28.032 7.92.009 2.704.03 5.407.062 8.11.042 3.898.059 7.794.069 11.692l.053 3.656c-.017 6.388-.088 10.481-4.479 15.293-7.56 6.643-13.632 4-25 4v-77Z" fill="#3A6BCC"/><path d="M434 155c20 0 20 0 26 4 4.193 5.553 3.45 12.19 3.434 18.844l.015 3.765c.009 3.292.001 6.584-.01 9.876-.001 2.013.01 4.026.028 6.039.03 3.878.034 7.754.03 11.632l.033 3.628c-.053 6.376-.213 10.38-4.53 15.216l-1.5 1.813C451.698 234.405 438.624 232 434 232v-77Z" fill="#CF9E02"/><path d="m197.305 154.482 3.174-.02c3.466-.018 6.93-.007 10.396.007l7.218-.012c5.044-.006 10.088.003 15.132.022 6.47.022 12.94.01 19.41-.015 4.968-.014 9.937-.01 14.906 0 2.385.003 4.771 0 7.157-.01 3.333-.01 6.665.006 9.997.028l2.998-.024c6.645.082 6.645.082 9.92 2.356 2.05 3.231 1.921 5.445 1.387 9.186-1.387 2.186-1.387 2.186-4 4-3.43.605-6.829.546-10.305.518l-3.174.02c-3.466.018-6.93.007-10.396-.007l-7.218.012c-5.044.006-10.088-.003-15.132-.022-6.47-.022-12.94-.01-19.41.015-4.968.014-9.937.01-14.906 0-2.385-.003-4.771 0-7.157.01-3.333.01-6.665-.006-9.997-.028l-2.998.024c-6.645-.082-6.645-.082-9.92-2.356-2.05-3.231-1.921-5.445-1.387-9.186 3.438-5.42 8.53-4.565 14.305-4.518Z" fill="#56707C"/><path d="M434 381c.76 8.495 1.14 16.898 1.098 25.426l-.005 3.374c-.005 3.504-.018 7.008-.03 10.512-.006 2.398-.01 4.796-.014 7.194-.01 5.831-.03 11.663-.049 17.494h-26v39a151473.79 151473.79 0 0 1-146.265.167c-16.253.013-32.506.037-48.759.064-16.672.028-33.344.045-50.016.051-10.291.004-20.582.017-30.873.042-7.053.016-14.106.02-21.159.017-4.072-.002-8.143 0-12.215.017-3.727.014-7.454.015-11.18.005-1.989-.002-3.977.01-5.964.024l-3.583-.018-3.086.004c-4.697-.604-7.952-2.425-11.275-5.748-1.778-2.872-2.003-4.317-1.625-7.625 2 2 2 2 3.313 4.438 2.507 3.806 5.44 5.146 9.687 6.562 1.829.096 3.66.134 5.492.139l3.48.016 3.84.003 4.067.015c3.733.014 7.466.021 11.2.028 4.022.008 8.044.021 12.067.034 6.972.022 13.944.04 20.915.056 10.08.023 20.161.05 30.241.08 16.354.048 32.707.091 49.061.132 15.888.039 31.777.08 47.665.125l2.967.008 14.732.041c40.758.114 81.515.22 122.273.323v-39h5l.688-3.25c1.477-4.222 2.507-5.502 6.312-7.75a128.18 128.18 0 0 1 6-1l-.095-3.836a1278.82 1278.82 0 0 1-.235-14.151c-.03-2.038-.07-4.076-.123-6.113a553.46 553.46 0 0 1-.133-8.81c-.03-.905-.062-1.809-.094-2.74-.003-5.839 1.117-8.856 5.193-13.076 2.732-2.341 3.664-2.274 7.487-2.274Z" fill="#677A83"/><path d="m214.541 126.596 1.963-.02c2.134-.02 4.268-.015 6.402-.01 1.487-.004 2.974-.01 4.46-.015 3.114-.01 6.228-.007 9.342.003 3.988.011 7.975-.009 11.964-.038 3.07-.018 6.138-.018 9.208-.012 1.47 0 2.94-.006 4.411-.019 2.057-.015 4.112-.004 6.168.013h3.543c3.64.61 4.826 1.562 6.998 4.502.724 5.895.724 5.895-1.107 8.69-2.84 1.966-5.184 1.699-8.612 1.714l-2.055.02c-2.242.02-4.484.015-6.726.01l-4.674.015c-3.265.01-6.53.007-9.795-.003-4.187-.011-8.373.009-12.56.038-3.216.018-6.433.018-9.65.012-1.544 0-3.088.006-4.632.019-2.157.014-4.313.004-6.47-.013h-3.721C206 141 206 141 204.076 139.191c-1.654-3.368-1.043-5.646-.076-9.192 3.252-3.33 6.01-3.383 10.541-3.404Z" fill="#556F7B"/><path d="M434 167h16v52h-16v-52Z" fill="#FABD00"/><path d="M434 330h16v51h-16v-51Z" fill="#437FF6"/><path d="M434 249h16v51h-16v-51Z" fill="#2CA84E"/><path d="M434 87h16v51h-16V87Z" fill="#EB4331"/><path d="M63 471c2 2 2 2 3.313 4.438 2.507 3.806 5.44 5.146 9.687 6.562 1.829.096 3.66.134 5.492.139l3.48.016 3.84.003 4.067.015c3.733.014 7.466.021 11.2.028 4.022.008 8.044.021 12.067.034 6.972.022 13.944.04 20.915.056 10.08.023 20.161.05 30.241.08 16.354.048 32.707.091 49.061.132 15.888.039 31.777.08 47.665.125l2.967.008 14.732.041c40.758.114 81.515.22 122.273.323v1a143620.716 143620.716 0 0 1-141.089.165l-2.995.002c-16.01.013-32.02.037-48.03.064-16.424.028-32.848.045-49.272.051-10.137.004-20.274.017-30.411.042-6.948.016-13.896.02-20.844.017-4.011-.002-8.022 0-12.033.017-3.671.014-7.343.015-11.014.005-1.958-.002-3.916.01-5.874.024-7.355-.037-12.392-.341-17.813-5.762-1.778-2.872-2.003-4.317-1.625-7.625Z" fill="#788B94"/><path d="M434 300v30c-7.921-2.263-7.921-2.263-11-7-1.338-2.677-1.206-4.824-1.25-7.813l-.078-3.144c.502-4.657 2.423-7.184 5.765-10.356C430 300 430 300 434 300Z" fill="#768790"/><path d="M434 219v29c-6.215-1.036-7.16-1.502-11-6-2.092-4.184-1.429-9.444-1-14 2.502-5.281 5.902-9 12-9Z" fill="#7E8E97"/><path d="M434 138v29c-6.77-1.128-6.77-1.128-8.813-3.875-3.464-4.949-3.87-9.246-3.187-15.125 1.09-3.43 2.626-6.157 5.79-8.098C432.09 138 432.09 138 434 138Z" fill="#87969D"/><path d="M404 445h5v39h-5v-39Z" fill="#546E7A"/><path d="M63 471c2 2 2 2 3.313 4.438 2.507 3.806 5.44 5.146 9.687 6.562 2.07.117 4.143.177 6.216.205l3.882.06c1.398.018 2.797.035 4.195.051l4.292.063c3.763.056 7.526.105 11.289.153 3.84.05 7.682.106 11.522.161 7.535.108 15.07.21 22.604.307v1c-8.632.07-17.264.123-25.896.155-4.009.016-8.017.037-12.026.071-3.87.033-7.742.05-11.613.059-1.474.005-2.948.016-4.422.032-2.071.022-4.14.025-6.211.024l-3.567.02c-4.916-.543-8.164-2.26-11.64-5.736-1.778-2.872-2.003-4.317-1.625-7.625Z" fill="#70838C"/><path d="M63 471c2 2 2 2 3.313 4.438C69.16 479.76 73.27 481.243 78 483v1c-4.424-.229-7.818-.44-11.438-3.125-3.01-3.377-3.387-5.42-3.562-9.875Z" fill="#607781"/></svg>